# xmcd
#
# Track frame offsets:
#	150
#	10823
#	59716
#	124055
#	181529
#	233889
#
# Disc length: 3608 seconds
#
# Revision: 2
# Processed by: cddbd v1.5.2PL0 Copyright (c) Steve Scherf et al.
# Submitted via: audiograbber 1.83.01
#
DISCID=460e1606
DTITLE=Nisennenmondai - Live!!!
DYEAR=2011
DGENRE=krautrock
TTITLE0=Intro
TTITLE1=Nissennenmondai
TTITLE2=Appointment
TTITLE3=Mirror Ball
TTITLE4=Ikkyokume
TTITLE5=Destination Tokyo
EXTD=
EXTT0=
EXTT1=
EXTT2=
EXTT3=
EXTT4=
EXTT5=
PLAYORDER=
